<?xml version="1.0" encoding="utf-8"?>
<!-- Generator: Adobe Illustrator 16.0.0, SVG Export Plug-In . SVG Version: 6.00 Build 0)  -->
<!DOCTYPE svg PUBLIC "-//W3C//DTD SVG 1.1//EN" "http://www.w3.org/Graphics/SVG/1.1/DTD/svg11.dtd">
<svg version="1.1" id="Layer_1" xmlns="http://www.w3.org/2000/svg" xmlns:xlink="http://www.w3.org/1999/xlink" x="0px" y="0px"
	 width="15px" height="15px" viewBox="0 0 15 15" enable-background="new 0 0 15 15" xml:space="preserve">
<g>
	<path fill="#FFFFFF" d="M7.488,0C3.353,0,0,3.353,0,7.489c0,4.137,3.353,7.488,7.489,7.488c4.137,0,7.489-3.352,7.489-7.488
		C14.978,3.353,11.625,0,7.488,0z M9.548,7.971l1.943,1.943c0.273,0.273,0.273,0.72,0,0.994l-0.553,0.554
		c-0.274,0.272-0.722,0.272-0.994,0L8,9.518c-0.272-0.272-0.719-0.272-0.993,0l-1.944,1.944c-0.273,0.272-0.72,0.272-0.993,0
		l-0.554-0.554c-0.273-0.274-0.273-0.721,0-0.994L5.46,7.971c0.272-0.273,0.272-0.72,0-0.993L3.517,5.034
		c-0.273-0.273-0.273-0.72,0-0.993L4.07,3.487c0.273-0.274,0.72-0.274,0.993,0l1.944,1.943c0.273,0.273,0.72,0.273,0.993,0
		l1.944-1.943c0.272-0.274,0.72-0.274,0.994,0l0.553,0.553c0.273,0.273,0.273,0.72,0,0.993L9.548,6.978
		C9.275,7.25,9.275,7.698,9.548,7.971z"/>
</g>
</svg>
