<?xml version="1.0" encoding="utf-8"?>
<!-- Generator: Adobe Illustrator 16.0.0, SVG Export Plug-In . SVG Version: 6.00 Build 0)  -->
<!DOCTYPE svg PUBLIC "-//W3C//DTD SVG 1.1//EN" "http://www.w3.org/Graphics/SVG/1.1/DTD/svg11.dtd">
<svg version="1.1" id="Layer_1" xmlns="http://www.w3.org/2000/svg" xmlns:xlink="http://www.w3.org/1999/xlink" x="0px" y="0px"
	 width="18.537px" height="16px" viewBox="0 0 18.537 16" enable-background="new 0 0 18.537 16" xml:space="preserve">
<g>
	<path d="M13.946,13.295c0,0.365-0.299,0.663-0.664,0.663H2.658c-0.366,0-0.665-0.298-0.665-0.663V2.657
		c0-0.366,0.298-0.664,0.665-0.664h9.206l1.941-1.941C13.636,0.019,13.461,0,13.282,0H2.658C1.189,0,0,1.19,0,2.657v10.638
		c0,1.467,1.189,2.657,2.658,2.657h10.625c1.467,0,2.657-1.19,2.657-2.657v-5.9l-1.993,1.994V13.295z"/>
	<path d="M8.059,7.694L8.059,7.694l0,0.001l0,0L6.69,11.907l4.213-1.368l0,0h0.001l0,0l7.633-7.633l-2.844-2.844L8.061,7.694H8.059z
		 M10.553,9.966l-2.845,0.926l0.923-2.845L10.553,9.966z"/>
</g>
</svg>
