<?xml version="1.0" encoding="utf-8"?>
<!-- Generator: Adobe Illustrator 16.0.0, SVG Export Plug-In . SVG Version: 6.00 Build 0)  -->
<!DOCTYPE svg PUBLIC "-//W3C//DTD SVG 1.1//EN" "http://www.w3.org/Graphics/SVG/1.1/DTD/svg11.dtd">
<svg version="1.1" id="Layer_1" xmlns="http://www.w3.org/2000/svg" xmlns:xlink="http://www.w3.org/1999/xlink" x="0px" y="0px"
	 width="15px" height="15px" viewBox="0 0 15 15" enable-background="new 0 0 15 15" xml:space="preserve">
<g>
	<polygon fill="#222222" points="6.206,4.947 6.206,3.445 5.022,3.445 5.022,4.947 3.519,4.947 3.519,6.132 5.022,6.132 
		5.022,7.633 6.206,7.633 6.206,6.132 7.708,6.132 7.708,4.947 	"/>
	<g>
		<path fill="#222222" d="M14.947,12.645L10.543,8.24c0.421-0.787,0.66-1.685,0.66-2.639C11.203,2.508,8.694,0,5.602,0
			C2.508,0,0,2.508,0,5.602s2.508,5.601,5.602,5.601c0.94,0,1.826-0.231,2.605-0.643l4.412,4.413L14.947,12.645z M1.868,5.602
			c0-2.059,1.674-3.733,3.734-3.733c2.058,0,3.733,1.674,3.733,3.733c0,2.058-1.675,3.734-3.733,3.734
			C3.542,9.336,1.868,7.66,1.868,5.602z"/>
	</g>
</g>
</svg>
