<?xml version="1.0" encoding="utf-8"?>
<!-- Generator: Adobe Illustrator 16.0.0, SVG Export Plug-In . SVG Version: 6.00 Build 0)  -->
<!DOCTYPE svg PUBLIC "-//W3C//DTD SVG 1.1//EN" "http://www.w3.org/Graphics/SVG/1.1/DTD/svg11.dtd">
<svg version="1.1" id="Layer_1" xmlns="http://www.w3.org/2000/svg" xmlns:xlink="http://www.w3.org/1999/xlink" x="0px" y="0px"
	 width="15px" height="15px" viewBox="0 0 15 15" enable-background="new 0 0 15 15" xml:space="preserve">
<g>
	<path fill="#222222" d="M14.585,6.146l-2.236-0.413c-0.218-0.04-0.293-0.222-0.17-0.405l1.283-1.903
		c0.124-0.183,0.097-0.46-0.06-0.616l-1.231-1.231c-0.156-0.156-0.434-0.183-0.615-0.06L9.652,2.803
		c-0.184,0.124-0.366,0.046-0.405-0.17L8.835,0.395C8.795,0.178,8.581,0,8.361,0H6.62C6.398,0,6.186,0.178,6.146,0.395L5.734,2.633
		C5.694,2.849,5.51,2.926,5.328,2.802L3.426,1.519c-0.183-0.123-0.46-0.096-0.617,0.06L1.578,2.81
		C1.422,2.966,1.395,3.243,1.519,3.426l1.283,1.902c0.124,0.183,0.048,0.365-0.17,0.405L0.395,6.146C0.177,6.186,0,6.399,0,6.62
		v1.741c0,0.22,0.177,0.435,0.395,0.474l2.238,0.413c0.217,0.039,0.293,0.221,0.17,0.404l-1.284,1.903
		c-0.124,0.183-0.097,0.459,0.059,0.616l1.231,1.23c0.157,0.156,0.434,0.184,0.617,0.059l1.902-1.282
		c0.182-0.123,0.366-0.046,0.406,0.17l0.412,2.237c0.04,0.217,0.252,0.395,0.474,0.395h1.742c0.22,0,0.434-0.178,0.474-0.395
		l0.412-2.238c0.039-0.216,0.222-0.293,0.405-0.169l1.903,1.282c0.182,0.125,0.459,0.098,0.615-0.059l1.231-1.23
		c0.156-0.156,0.183-0.434,0.059-0.616l-1.283-1.903c-0.123-0.184-0.047-0.365,0.17-0.404l2.237-0.413
		c0.219-0.039,0.396-0.254,0.396-0.474V6.62C14.98,6.399,14.804,6.186,14.585,6.146z M7.489,10.202
		c-1.495,0-2.707-1.211-2.707-2.706c0-1.494,1.212-2.707,2.707-2.707c1.495,0,2.707,1.212,2.707,2.707
		C10.196,8.991,8.984,10.202,7.489,10.202z"/>
</g>
</svg>
